<svg width="50" height="51" viewBox="0 0 50 51" fill="none" xmlns="http://www.w3.org/2000/svg">
<path d="M17.5401 46.1217C17.9365 46.5494 17.9132 47.2265 17.4871 47.6245L15.1849 49.78C14.7588 50.178 14.0858 50.1546 13.6893 49.7259L0.282116 35.2583C-0.114303 34.8306 -0.0899242 34.1546 0.336173 33.7556L2.64155 31.6033C3.06765 31.2042 3.74071 31.2286 4.13713 31.6574L17.5401 46.1217ZM34.6476 18.8996C35.044 19.3273 35.0196 20.0044 34.5935 20.4024L20.1041 33.9551C19.678 34.3531 19.005 34.3297 18.6085 33.901L15.1499 30.1642C14.7535 29.7364 14.7779 29.0593 15.204 28.6614L29.6902 15.1087C30.1153 14.7107 30.7883 14.734 31.1848 15.1628L34.6476 18.8996ZM22.4699 41.5083C22.8663 41.936 22.842 42.612 22.4159 43.0111L20.1105 45.1655C19.6844 45.5645 19.0113 45.5401 18.6149 45.1114L5.21509 30.6439C4.81868 30.2162 4.84199 29.5391 5.26809 29.1411L7.56923 26.9877C7.99533 26.5897 8.66839 26.6131 9.06481 27.0418L22.4699 41.5083ZM44.7955 19.4186C45.1919 19.8463 45.1675 20.5234 44.7404 20.9214L42.4361 23.0758C42.01 23.4738 41.3369 23.4504 40.9394 23.0227L27.5375 8.55838C27.14 8.13068 27.1644 7.45464 27.5905 7.05559L29.9012 4.89587C30.3262 4.49788 30.9993 4.52123 31.3957 4.94999L44.7955 19.4186ZM49.7179 14.8126C50.1143 15.2403 50.0899 15.9174 49.6638 16.3164L47.3638 18.4698C46.9387 18.8688 46.2656 18.8444 45.8692 18.4167L32.4694 3.94601C32.073 3.51831 32.0963 2.84121 32.5224 2.44216L34.8246 0.284556C35.2497 -0.114489 35.9217 -0.0911407 36.3181 0.337621L49.7179 14.8126Z" fill="white"/>
</svg>
