<svg width="50" height="50" viewBox="0 0 50 50" fill="none" xmlns="http://www.w3.org/2000/svg">
<path d="M46.3952 9.15384e-05C45.4976 0.00790685 44.6546 0.367412 44.1785 1.09424L36.5917 15.3806C37.1537 15.576 38.4181 16.1387 42.6174 18.0378L42.6799 18.0691C43.4058 18.3973 43.96 18.6318 44.1785 18.7256C44.2527 18.7608 44.3229 18.8155 44.3971 18.8506L49.9233 3.53261C50.2706 2.32124 49.4042 0.926206 48.0188 0.375227C47.5036 0.117322 46.9338 -0.00381607 46.3952 9.15384e-05ZM3.99636 7.97171C1.79134 7.97171 0 9.76533 0 11.9732C0 14.181 1.79134 15.9746 3.99636 15.9746C6.20138 15.9746 7.99272 14.181 7.99272 11.9732C7.99272 9.76533 6.20138 7.97171 3.99636 7.97171ZM12.9882 10.9728C11.8837 10.9728 10.99 11.8676 10.99 12.9735C10.99 14.0794 11.8837 14.9742 12.9882 14.9742C14.0926 14.9742 14.9864 14.0794 14.9864 12.9735C14.9864 11.8676 14.0926 10.9728 12.9882 10.9728ZM32.127 16.5998C30.1952 16.7444 28.5131 17.7057 27.3189 19.3821C28.0721 20.6521 29.3912 22.2034 31.2528 22.1643C31.7445 22.1448 32.1582 22.5004 32.2519 22.9771C32.6304 23.5672 34.9564 24.6144 35.6238 24.3526C35.9048 24.2432 36.2053 24.2666 36.4668 24.4151C36.7283 24.5636 36.9156 24.8059 36.9663 25.1029C37.0054 25.267 37.4425 25.8414 38.3401 26.2596C39.0465 26.5878 39.7333 26.6699 40.1197 26.4784C40.3695 26.3533 40.6427 26.3494 40.9002 26.4471C41.1617 26.5448 41.3881 26.7519 41.4935 27.0098C42.1686 28.6589 45.2518 28.78 47.3631 28.6041C47.6714 27.2638 47.5895 25.8688 47.1133 24.5714C46.4538 22.7856 45.1464 21.375 43.3668 20.57C43.1794 20.4879 42.5745 20.1988 41.8057 19.851C38.2464 18.241 36.2365 17.3657 35.8424 17.2563C34.5389 16.7405 33.2861 16.5139 32.127 16.5998ZM11.4895 17.9753C8.46104 17.9753 5.99454 20.445 5.99454 23.4773C5.99454 26.5096 8.46104 28.9793 11.4895 28.9793C14.518 28.9793 16.9845 26.5096 16.9845 23.4773C16.9845 20.445 14.518 17.9753 11.4895 17.9753ZM26.2573 21.3828C25.9451 22.1252 25.59 22.8208 25.227 23.4773C25.6563 24.5246 26.9247 26.9512 29.2546 26.4159C29.5239 26.3533 29.8088 26.3885 30.0351 26.5409C30.2654 26.6933 30.3942 26.9278 30.441 27.1974C30.5074 27.5725 30.9484 28.018 31.565 28.3541C32.4392 28.8269 33.3837 28.9324 33.7817 28.7605C34.0432 28.6471 34.3359 28.6393 34.5935 28.7605C34.8511 28.8816 35.0462 29.1121 35.1243 29.3857C35.2648 29.8624 35.7565 30.3509 36.4356 30.6987C37.2356 31.105 38.1488 31.2535 38.746 31.0425C39.2065 30.8823 39.6982 31.0777 39.9324 31.5114C40.8144 33.1488 43.7102 33.3246 45.9581 33.1683C46.243 32.3555 46.5084 31.5193 46.7699 30.6361C46.5006 30.6518 46.2196 30.6674 45.9269 30.6674C43.8351 30.6674 41.3334 30.2532 40.0885 28.5416C39.2455 28.6549 38.2776 28.4713 37.3098 27.9789C36.6073 27.6194 35.8345 27.0684 35.374 26.3846C34.1018 26.3846 32.6382 25.6773 31.9084 25.2279C31.3425 24.8801 30.9015 24.5363 30.6284 24.165C28.6458 23.9814 27.2291 22.688 26.2573 21.3828ZM23.9782 25.4468C17.7846 34.0631 7.20828 33.8091 7.08729 33.7935C6.69312 33.7583 6.30676 33.9694 6.11943 34.325C5.9321 34.6806 5.95942 35.1065 6.21309 35.4191C7.99662 37.623 9.91285 39.487 11.8642 41.0774C12.7852 41.2611 18.5807 42.0817 24.3216 35.4191C24.6806 35.001 25.309 34.9658 25.7266 35.3253C26.1442 35.6848 26.1793 36.314 25.8202 36.7321C21.8161 41.3783 17.5934 42.8319 14.6429 43.1406C17.1094 44.8053 19.5954 46.0636 21.9175 47.017C23.3928 46.7083 28.3414 45.2273 32.7202 38.5452C33.0246 38.0841 33.6646 37.9278 34.1252 38.2326C34.5857 38.5374 34.7106 39.1783 34.4062 39.6394C31.1045 44.6763 27.4906 47.0405 24.946 48.1424C30.1405 49.8266 34.0159 49.9751 34.3437 49.9868H34.3749C34.5623 49.9868 34.7457 49.9321 34.9057 49.8305C35.1867 49.6547 40.9705 45.8721 45.2088 35.2315C45.0449 35.2354 44.8771 35.2628 44.7093 35.2628C42.5238 35.2628 39.9987 34.8212 38.6211 33.1058C37.6532 33.223 36.5448 33.0003 35.5301 32.4805C34.7028 32.0546 34.0471 31.4841 33.6256 30.8237C32.5641 30.9136 31.4167 30.5306 30.6284 30.1047C29.8166 29.6631 29.1805 29.1082 28.8175 28.4791C26.5188 28.6002 24.9226 27.0333 23.9782 25.4468Z" fill="white"/>
</svg>
