<svg width="75" height="48" viewBox="0 0 75 48" fill="none" xmlns="http://www.w3.org/2000/svg">
<g filter="url(#filter0_dd_371_2837)">
<path d="M64.7046 13.6527H59.831L51.1384 0H31.8025L21.4589 13.6527H10.2926C6.81392 13.6527 4 17.5879 4 22.4412V24.1136C4 28.9633 6.81392 32.8985 10.2926 32.8985H12.6546C13.4282 36.9794 16.1796 40 19.4758 40C22.7639 40 25.5206 36.9794 26.2943 32.8985H49.7518C50.5254 36.9794 53.2822 40 56.573 40C59.8637 40 62.6179 36.9794 63.3916 32.8985H64.7046C68.1833 32.8985 71 28.9633 71 24.1136V22.4412C71 17.5879 68.1833 13.6527 64.7046 13.6527ZM47.2456 27.025V25.2359H32.8894C32.6306 25.2359 31.0479 25.1594 29.7376 23.4396C28.648 22.004 28.0977 19.9162 28.0977 17.2381C28.0977 14.5163 28.6725 12.3702 29.8057 10.8544C31.3149 8.85044 33.1918 8.78486 33.4179 8.80672L50.52 8.79578V12.5852L33.4097 12.5961C32.8377 12.6143 30.9308 13.0042 30.9308 17.2381C30.9308 21.0821 32.4508 21.4283 32.9139 21.4429H47.2456V19.887L54.8215 23.4542L47.2456 27.025Z" fill="white"/>
</g>
<defs>
<filter id="filter0_dd_371_2837" x="0" y="0" width="75" height="48" filterUnits="userSpaceOnUse" color-interpolation-filters="sRGB">
<feFlood flood-opacity="0" result="BackgroundImageFix"/>
<feColorMatrix in="SourceAlpha" type="matrix" values="0 0 0 0 0 0 0 0 0 0 0 0 0 0 0 0 0 0 127 0" result="hardAlpha"/>
<feOffset dy="4"/>
<feGaussianBlur stdDeviation="2"/>
<feComposite in2="hardAlpha" operator="out"/>
<feColorMatrix type="matrix" values="0 0 0 0 0 0 0 0 0 0 0 0 0 0 0 0 0 0 0.25 0"/>
<feBlend mode="normal" in2="BackgroundImageFix" result="effect1_dropShadow_371_2837"/>
<feColorMatrix in="SourceAlpha" type="matrix" values="0 0 0 0 0 0 0 0 0 0 0 0 0 0 0 0 0 0 127 0" result="hardAlpha"/>
<feOffset dy="4"/>
<feGaussianBlur stdDeviation="2"/>
<feComposite in2="hardAlpha" operator="out"/>
<feColorMatrix type="matrix" values="0 0 0 0 0 0 0 0 0 0 0 0 0 0 0 0 0 0 0.25 0"/>
<feBlend mode="normal" in2="effect1_dropShadow_371_2837" result="effect2_dropShadow_371_2837"/>
<feBlend mode="normal" in="SourceGraphic" in2="effect2_dropShadow_371_2837" result="shape"/>
</filter>
</defs>
</svg>
