<svg width="68" height="68" viewBox="0 0 68 68" fill="none" xmlns="http://www.w3.org/2000/svg">
<g filter="url(#filter0_dd_371_2805)">
<path d="M39.0649 34.1727C39.6925 33.4968 39.6925 32.4009 39.0649 31.725C38.4373 31.0491 37.4197 31.0491 36.7921 31.725L32.6905 36.1422L31.2079 34.5455C30.5802 33.8696 29.5627 33.8696 28.9351 34.5455C28.3074 35.2214 28.3074 36.3173 28.9351 36.9932L31.5541 39.8137C32.1817 40.4896 33.1993 40.4896 33.8269 39.8137L39.0649 34.1727Z" fill="white"/>
<path fill-rule="evenodd" clip-rule="evenodd" d="M35.7327 0.545984C34.6764 -0.181995 33.3236 -0.181995 32.2674 0.545984L5.48199 19.0075C3.98681 20.0381 3.55046 22.1788 4.50738 23.789C5.46429 25.3992 7.45211 25.8692 8.94729 24.8386L11.5003 23.079V50.7692C11.5003 55.8672 15.3378 60 20.0716 60H47.9284C52.6622 60 56.4997 55.8672 56.4997 50.7692V23.079L59.0527 24.8386C60.5479 25.8692 62.5357 25.3992 63.4926 23.789C64.4495 22.1788 64.0132 20.0381 62.518 19.0075L35.7327 0.545984ZM45.7856 35.7692C45.7856 42.779 40.509 48.4615 34 48.4615C27.491 48.4615 22.2144 42.779 22.2144 35.7692C22.2144 28.7595 27.491 23.0769 34 23.0769C40.509 23.0769 45.7856 28.7595 45.7856 35.7692Z" fill="white"/>
</g>
<defs>
<filter id="filter0_dd_371_2805" x="0" y="0" width="68" height="68" filterUnits="userSpaceOnUse" color-interpolation-filters="sRGB">
<feFlood flood-opacity="0" result="BackgroundImageFix"/>
<feColorMatrix in="SourceAlpha" type="matrix" values="0 0 0 0 0 0 0 0 0 0 0 0 0 0 0 0 0 0 127 0" result="hardAlpha"/>
<feOffset dy="4"/>
<feGaussianBlur stdDeviation="2"/>
<feComposite in2="hardAlpha" operator="out"/>
<feColorMatrix type="matrix" values="0 0 0 0 0 0 0 0 0 0 0 0 0 0 0 0 0 0 0.25 0"/>
<feBlend mode="normal" in2="BackgroundImageFix" result="effect1_dropShadow_371_2805"/>
<feColorMatrix in="SourceAlpha" type="matrix" values="0 0 0 0 0 0 0 0 0 0 0 0 0 0 0 0 0 0 127 0" result="hardAlpha"/>
<feOffset dy="4"/>
<feGaussianBlur stdDeviation="2"/>
<feComposite in2="hardAlpha" operator="out"/>
<feColorMatrix type="matrix" values="0 0 0 0 0 0 0 0 0 0 0 0 0 0 0 0 0 0 0.25 0"/>
<feBlend mode="normal" in2="effect1_dropShadow_371_2805" result="effect2_dropShadow_371_2805"/>
<feBlend mode="normal" in="SourceGraphic" in2="effect2_dropShadow_371_2805" result="shape"/>
</filter>
</defs>
</svg>
