<svg width="50" height="58" viewBox="0 0 50 58" fill="none" xmlns="http://www.w3.org/2000/svg">
<path fill-rule="evenodd" clip-rule="evenodd" d="M15.4832 39.1729C15.3596 39.1716 15.234 39.1855 15.1092 39.2159C7.60347 41.0492 0 44.7872 0 50.4105V57.0164H50V50.4105C50 44.7872 42.3965 41.0492 34.8908 39.2159C34.766 39.1855 34.6404 39.1716 34.5168 39.1729L25 50.0632L15.4832 39.1729ZM40.2778 47.7454C40.2778 47.7454 38.426 46.8183 37.5 45.8912C36.574 46.8183 34.7222 47.7454 34.7222 47.7454C34.7222 47.7454 35.6921 51.4538 37.5 51.4538C39.3079 51.4538 40.2778 47.7454 40.2778 47.7454Z" fill="white"/>
<path d="M27.0829 36.1562H22.9162C22.1491 36.1562 21.5273 36.7788 21.5273 37.5469V39.7522C21.5273 40.121 21.6737 40.4748 21.9341 40.7355L22.9162 41.7189L21.5273 46.5862L24.9996 53.5394L28.4718 46.5862L27.0829 41.0235L27.704 40.7126C28.1746 40.477 28.4718 39.9954 28.4718 39.4688V37.5469C28.4718 36.7788 27.85 36.1562 27.0829 36.1562Z" fill="white"/>
<path fill-rule="evenodd" clip-rule="evenodd" d="M12.5 20.8595V16.6875H15.2778V20.8595C15.2778 26.2357 19.6306 30.594 25 30.594C30.3694 30.594 34.7222 26.2357 34.7222 20.8595V16.6875H37.5V20.8595C37.5 27.7719 31.9036 33.3754 25 33.3754C18.0964 33.3754 12.5 27.7719 12.5 20.8595Z" fill="white"/>
<path fill-rule="evenodd" clip-rule="evenodd" d="M10.679 12.5159C10.5734 12.3494 10.4658 12.1821 10.3576 12.0136C9.37412 10.484 8.33398 8.86663 8.33398 7.08785C8.33398 5.97421 9.05662 5.03648 10.0132 4.29501C13.5687 1.53891 25.0007 0 25.0007 0C25.0007 0 36.4326 1.53893 39.9881 4.29501C40.9447 5.03648 41.6673 5.97421 41.6673 7.08785C41.6673 9.11585 40.5204 10.867 39.4322 12.5159H10.679ZM22.2229 6.95327C22.2229 5.4172 23.4665 4.17196 25.0007 4.17196C26.5348 4.17196 27.7784 5.4172 27.7784 6.95327C27.7784 8.48935 26.5348 9.73458 25.0007 9.73458C23.4665 9.73458 22.2229 8.48935 22.2229 6.95327Z" fill="white"/>
<path fill-rule="evenodd" clip-rule="evenodd" d="M11.143 15.8679C11.206 15.5372 11.5084 15.2969 11.8613 15.2969H38.143C38.4959 15.2969 38.7982 15.5372 38.8613 15.8679L38.8616 15.8695L38.862 15.8712L38.8627 15.8752L38.8644 15.8847L38.8684 15.91C38.8713 15.9296 38.8746 15.9548 38.8778 15.985C38.8842 16.0455 38.89 16.1267 38.8909 16.2256C38.8925 16.4234 38.8744 16.6942 38.7995 17.0131C38.6481 17.6577 38.2706 18.477 37.406 19.2733C35.692 20.852 32.1705 22.2501 25.0021 22.2501C17.8338 22.2501 14.3123 20.852 12.5982 19.2733C11.7337 18.477 11.3562 17.6577 11.2048 17.0131C11.1299 16.6942 11.1117 16.4234 11.1134 16.2256C11.1142 16.1267 11.12 16.0455 11.1264 15.985C11.1296 15.9548 11.133 15.9296 11.1359 15.91L11.1399 15.8847L11.1416 15.8752L11.1423 15.8712L11.1427 15.8695L11.143 15.8679Z" fill="white"/>
</svg>
