<svg width="60" height="56" viewBox="0 0 60 56" fill="none" xmlns="http://www.w3.org/2000/svg">
<path d="M41.2492 10.4664C41.2492 4.68588 36.2126 0 29.9994 0C23.7863 0 18.7496 4.68588 18.7496 10.4664C18.7496 16.2469 23.7863 20.9328 29.9994 20.9328C36.2126 20.9328 41.2492 16.2469 41.2492 10.4664ZM27.3733 26.2859C20.4207 22.3261 9.1592 21.238 3.49212 20.9382C1.58786 20.8379 0 22.1876 0 23.8917V48.1824C0 49.7447 1.35818 51.0476 3.10424 51.1315C8.22054 51.3812 18.5715 52.2959 25.7257 55.6484C26.8237 56.163 28.1256 55.462 28.1256 54.3543V27.5353C28.1245 27.0261 27.8538 26.5595 27.3733 26.2859ZM56.5067 20.9382C50.8408 21.2369 39.5781 22.3261 32.6267 26.2859C32.1462 26.5595 31.8756 27.0447 31.8756 27.5538V54.351C31.8756 55.462 33.181 56.1641 34.2825 55.6484C41.4355 52.2992 51.7806 51.3845 56.8958 51.1348C58.6418 51.0498 60 49.7469 60 48.1846V23.8917C59.9988 22.1876 58.411 20.8379 56.5067 20.9382Z" fill="white"/>
</svg>
