<svg width="50" height="58" viewBox="0 0 50 58" fill="none" xmlns="http://www.w3.org/2000/svg">
<path d="M48.6607 53.6395H46.4286V2.68198C46.4286 1.20074 45.2294 0 43.75 0H6.25C4.77065 0 3.57143 1.20074 3.57143 2.68198V53.6395H1.33929C0.599665 53.6395 0 54.24 0 54.9805V57.2155H50V54.9805C50 54.24 49.4003 53.6395 48.6607 53.6395ZM14.2857 8.49293C14.2857 7.75237 14.8854 7.15194 15.625 7.15194H20.0893C20.8289 7.15194 21.4286 7.75237 21.4286 8.49293V12.9629C21.4286 13.7035 20.8289 14.3039 20.0893 14.3039H15.625C14.8854 14.3039 14.2857 13.7035 14.2857 12.9629V8.49293ZM14.2857 19.2208C14.2857 18.4803 14.8854 17.8798 15.625 17.8798H20.0893C20.8289 17.8798 21.4286 18.4803 21.4286 19.2208V23.6908C21.4286 24.4314 20.8289 25.0318 20.0893 25.0318H15.625C14.8854 25.0318 14.2857 24.4314 14.2857 23.6908V19.2208ZM20.0893 35.7597H15.625C14.8854 35.7597 14.2857 35.1593 14.2857 34.4187V29.9487C14.2857 29.2082 14.8854 28.6078 15.625 28.6078H20.0893C20.8289 28.6078 21.4286 29.2082 21.4286 29.9487V34.4187C21.4286 35.1593 20.8289 35.7597 20.0893 35.7597ZM28.5714 53.6395H21.4286V44.2526C21.4286 43.5121 22.0282 42.9116 22.7679 42.9116H27.2321C27.9718 42.9116 28.5714 43.5121 28.5714 44.2526V53.6395ZM35.7143 34.4187C35.7143 35.1593 35.1146 35.7597 34.375 35.7597H29.9107C29.1711 35.7597 28.5714 35.1593 28.5714 34.4187V29.9487C28.5714 29.2082 29.1711 28.6078 29.9107 28.6078H34.375C35.1146 28.6078 35.7143 29.2082 35.7143 29.9487V34.4187ZM35.7143 23.6908C35.7143 24.4314 35.1146 25.0318 34.375 25.0318H29.9107C29.1711 25.0318 28.5714 24.4314 28.5714 23.6908V19.2208C28.5714 18.4803 29.1711 17.8798 29.9107 17.8798H34.375C35.1146 17.8798 35.7143 18.4803 35.7143 19.2208V23.6908ZM35.7143 12.9629C35.7143 13.7035 35.1146 14.3039 34.375 14.3039H29.9107C29.1711 14.3039 28.5714 13.7035 28.5714 12.9629V8.49293C28.5714 7.75237 29.1711 7.15194 29.9107 7.15194H34.375C35.1146 7.15194 35.7143 7.75237 35.7143 8.49293V12.9629Z" fill="white"/>
</svg>
